<svg width="80" height="143" viewBox="0 0 80 143" fill="none" xmlns="http://www.w3.org/2000/svg">
<g filter="url(#filter0_d_40_466)">
<rect x="4" width="72" height="134.1" fill="black"/>
<g clip-path="url(#clip0_40_466)">
<rect width="57.6" height="55.8" transform="translate(11.2 38.7)" fill="black"/>
<g clip-path="url(#clip1_40_466)">
<g clip-path="url(#clip2_40_466)">
<g clip-path="url(#clip3_40_466)">
<g clip-path="url(#clip4_40_466)">
<g clip-path="url(#clip5_40_466)">
<g clip-path="url(#clip6_40_466)">
<g clip-path="url(#clip7_40_466)">
<path d="M37.0039 47.3495L45.8088 45.001L52.842 70.9795C54.3839 76.6728 53.9717 81.4656 51.6071 85.3579C49.235 89.2618 45.238 91.9636 39.6177 93.4616C36.3916 94.3225 33.3168 94.6653 30.3933 94.4902C27.4637 94.3269 24.8381 93.6868 22.5194 92.5669L24.1858 85.1739C28.3829 87.031 32.7876 87.3444 37.3983 86.1157C40.5858 85.2652 42.737 83.8333 43.8489 81.8188C44.9593 79.7954 45.0616 77.1114 44.1558 73.768L43.5257 71.4371C41.8252 75.2131 38.6511 77.7206 34.0018 78.9596C29.1716 80.2472 25.0961 79.8779 21.7737 77.8486C18.4409 75.8223 16.0837 72.2553 14.7005 67.1491L11.2031 54.2304L20.0228 51.8789L23.3704 64.2428C24.171 67.1991 25.483 69.246 27.3051 70.385C29.1286 71.5239 31.3287 71.7506 33.9054 71.0619C36.6259 70.3364 38.568 68.9649 39.7318 66.9489C40.9075 64.9388 41.0617 62.3327 40.1929 59.1307L37.0039 47.3495ZM63.0731 82.1999C61.0657 83.9452 58.9071 85.1621 56.6003 85.8523C54.292 86.5424 51.9925 86.669 49.7035 86.2334L49.4247 78.4357C52.9384 79.2024 55.7137 78.6992 57.7522 76.9274C60.578 74.4714 60.5542 71.6152 57.6826 68.3616L41.6043 50.141L31.2205 59.1674L26.3948 53.6992L43.6487 38.6998L64.2191 62.0134C67.4096 65.629 68.9025 69.1312 68.6994 72.5172C68.4874 75.8959 66.6134 79.123 63.0731 82.1999Z" fill="white"/>
</g>
</g>
</g>
</g>
</g>
</g>
</g>
</g>
</g>
<defs>
<filter id="filter0_d_40_466" x="0" y="0" width="80" height="142.1" filterUnits="userSpaceOnUse" color-interpolation-filters="sRGB">
<feFlood flood-opacity="0" result="BackgroundImageFix"/>
<feColorMatrix in="SourceAlpha" type="matrix" values="0 0 0 0 0 0 0 0 0 0 0 0 0 0 0 0 0 0 127 0" result="hardAlpha"/>
<feOffset dy="4"/>
<feGaussianBlur stdDeviation="2"/>
<feComposite in2="hardAlpha" operator="out"/>
<feColorMatrix type="matrix" values="0 0 0 0 0 0 0 0 0 0 0 0 0 0 0 0 0 0 0.25 0"/>
<feBlend mode="normal" in2="BackgroundImageFix" result="effect1_dropShadow_40_466"/>
<feBlend mode="normal" in="SourceGraphic" in2="effect1_dropShadow_40_466" result="shape"/>
</filter>
<clipPath id="clip0_40_466">
<rect width="57.6" height="55.8" fill="white" transform="translate(11.2 38.7)"/>
</clipPath>
<clipPath id="clip1_40_466">
<rect width="57.6" height="55.8" fill="white" transform="translate(11.1606 38.7173)"/>
</clipPath>
<clipPath id="clip2_40_466">
<rect width="57.5137" height="55.8341" fill="white" transform="translate(11.2041 38.7003)"/>
</clipPath>
<clipPath id="clip3_40_466">
<rect width="57.5137" height="55.8341" fill="white" transform="translate(11.2041 38.7003)"/>
</clipPath>
<clipPath id="clip4_40_466">
<rect width="57.5137" height="55.8341" fill="white" transform="translate(11.2041 38.7003)"/>
</clipPath>
<clipPath id="clip5_40_466">
<rect width="57.5137" height="55.8341" fill="white" transform="translate(11.2041 38.7003)"/>
</clipPath>
<clipPath id="clip6_40_466">
<rect width="57.5137" height="55.8341" fill="white" transform="translate(11.2041 38.7003)"/>
</clipPath>
<clipPath id="clip7_40_466">
<rect width="57.5137" height="55.8341" fill="white" transform="translate(11.2041 38.7003)"/>
</clipPath>
</defs>
</svg>
