<svg width="58" height="56" viewBox="0 0 58 56" fill="none" xmlns="http://www.w3.org/2000/svg">
<path d="M25.8433 8.63218L34.6482 6.2836L41.6814 32.2621C43.2232 37.9555 42.8111 42.7483 40.4464 46.6405C38.0743 50.5445 34.0774 53.2462 28.457 54.7443C25.231 55.6051 22.1562 55.948 19.2326 55.7729C16.3031 55.6095 13.6775 54.9694 11.3588 53.8496L13.0252 46.4566C17.2223 48.3137 21.6269 48.6271 26.2377 47.3984C29.4251 46.5478 31.5763 45.116 32.6882 43.1015C33.7987 41.0781 33.901 38.394 32.9951 35.0507L32.365 32.7198C30.6646 36.4957 27.4904 39.0032 22.8411 40.2423C18.011 41.5299 13.9355 41.1605 10.6131 39.1313C7.28029 37.105 4.92304 33.5379 3.53982 28.4317L0.0424805 15.5131L8.86217 13.1616L12.2098 25.5254C13.0103 28.4817 14.3224 30.5287 16.1445 31.6676C17.968 32.8066 20.1681 33.0332 22.7448 32.3445C25.4652 31.6191 27.4074 30.2476 28.5712 28.2316C29.7469 26.2215 29.901 23.6154 29.0323 20.4133L25.8433 8.63218ZM51.9125 43.4826C49.9051 45.2278 47.7465 46.4448 45.4396 47.1349C43.1313 47.8251 40.8319 47.9517 38.5428 47.5161L38.2641 39.7184C41.7777 40.4851 44.5531 39.9818 46.5916 38.2101C49.4173 35.7541 49.3936 32.8978 46.5219 29.6443L30.4437 11.4237L20.0599 20.4501L15.2342 14.9819L32.4881 -0.0175171L53.0585 23.296C56.2489 26.9116 57.7418 30.4139 57.5387 33.7999C57.3267 37.1785 55.4528 40.4056 51.9125 43.4826Z" fill="black"/>
</svg>
