<svg width="93" height="95" viewBox="0 0 93 95" fill="none" xmlns="http://www.w3.org/2000/svg">
<g clip-path="url(#clip0_20_618)">
<path d="M32.1212 42.2881C31.5594 39.7671 30.9302 37.4279 30.256 35.2022C35.0569 32.7651 39.5784 29.8025 43.7392 26.3677C47.3719 23.4313 50.5593 19.9727 53.1998 16.1023C55.1828 13.3513 56.3306 10.0764 56.5032 6.67725C56.5982 4.95144 56.0891 3.2469 55.065 1.86252C54.5456 1.23796 53.8892 0.744428 53.1481 0.421145C52.4069 0.0978615 51.6013 -0.0462631 50.7953 0.000222806C48.1688 0.251657 45.6896 1.34138 43.7167 3.11163C40.4346 5.808 37.5779 8.99377 35.2448 12.5594C31.863 17.6698 28.9662 23.0915 26.5931 28.7523H26.2111C23.7311 21.4925 20.4521 14.5372 16.4358 8.0172C13.3122 3.38416 10.2336 1.04493 7.22231 1.04493C5.9667 1.0323 4.72883 1.34506 3.62681 1.95337C2.55115 2.57427 1.65304 3.46627 1.02007 4.54242C0.338832 5.74337 -0.00317913 7.11026 0.0313028 8.49413C0.143642 10.8921 0.821668 13.2281 2.00883 15.3074C3.92017 18.5865 6.28061 21.5761 9.02007 24.1874C12.9523 28.0452 17.1665 31.5981 21.6268 34.8161C20.9813 36.7147 20.4411 38.6481 20.0088 40.6074C19.2816 43.7331 18.7116 46.894 18.301 50.0779C17.8592 53.2761 17.6339 56.5009 17.6268 59.7301C17.6268 64.1133 18.3459 67.1566 19.874 68.8145C20.5412 69.638 21.3866 70.2956 22.3451 70.7366C23.3036 71.1776 24.3494 71.3902 25.4021 71.3581C26.6365 71.3528 27.8529 71.059 28.9562 70.4995C30.0594 69.94 31.0196 69.1301 31.7616 68.1331C33.5982 65.3977 34.4763 62.1199 34.256 58.8216C34.2505 56.2315 34.0779 53.6446 33.7392 51.0772C33.3122 48.1702 32.7953 45.2405 32.1212 42.2881Z" fill="#231815"/>
<path d="M82.4808 75.3551C75.8095 69.3272 68.6116 63.9226 60.9751 59.2076C69.2488 54.468 77.0393 48.9148 84.2336 42.6286C89.4471 37.723 92.0313 33.5442 92.0313 30.024C92.0827 28.5034 91.5968 27.0139 90.6605 25.8225C90.1726 25.2341 89.5537 24.771 88.8545 24.471C88.1553 24.171 87.3958 24.0426 86.6381 24.0964C83.8737 24.2921 81.2154 25.2504 78.9527 26.8672C75.187 29.4403 71.7655 32.4936 68.7729 35.9516C64.002 41.2629 59.552 46.86 55.4471 52.7122H55.065C55.3122 49.9642 55.5145 47.466 55.6268 45.2176C55.7392 42.9692 55.8291 40.9253 55.8291 39.1311C55.9 36.3117 55.6588 33.4932 55.11 30.728C54.8597 29.1836 54.1549 27.7511 53.0875 26.6173C52.2508 25.8714 51.1694 25.4666 50.0538 25.4818C49.2542 25.4498 48.4593 25.62 47.7412 25.9769C47.0231 26.3338 46.4045 26.8662 45.9414 27.5258C44.7685 29.4342 44.0031 31.5692 43.6942 33.794C42.9305 38.685 42.413 43.6121 42.1437 48.5561C41.7841 54.1203 41.6268 59.9116 41.6268 65.7029C41.6268 71.1384 41.8141 76.0288 42.1886 80.3742C42.4148 83.5981 42.8274 86.8058 43.4246 89.9809C43.6919 91.3796 44.268 92.6993 45.11 93.8418C45.4509 94.2343 45.8735 94.5457 46.3475 94.7538C46.8214 94.9619 47.335 95.0615 47.8516 95.0455C49.1692 95.0227 50.4377 94.5362 51.4386 93.6698C52.4395 92.8034 53.11 91.6113 53.3347 90.2989C54.5718 85.1588 55.0862 79.8681 54.8628 74.5829C54.8628 73.0613 54.8628 71.5169 54.8628 70.0407C54.8628 68.5645 54.7055 66.9747 54.5707 65.4985H54.9527C58.4228 71.412 62.2974 77.0732 66.5482 82.4409C69.208 85.8803 72.3852 88.8767 75.9639 91.3209C78.3556 92.9252 81.1401 93.8292 84.0089 93.9327C85.6528 94.0294 87.268 93.4662 88.5032 92.3656C89.0211 91.8298 89.4257 91.1931 89.6923 90.4942C89.9588 89.7953 90.0818 89.0488 90.0538 88.3003C90.1437 84.553 87.6718 80.2379 82.4808 75.3551Z" fill="#231815"/>
</g>
<defs>
<clipPath id="clip0_20_618">
<rect width="92" height="95" fill="white" transform="translate(0.03125)"/>
</clipPath>
</defs>
</svg>
